<?xml version="1.0" standalone="no"?>
<!DOCTYPE svg PUBLIC "-//W3C//DTD SVG 20010904//EN"
 "http://www.w3.org/TR/2001/REC-SVG-20010904/DTD/svg10.dtd">
<svg version="1.0" xmlns="http://www.w3.org/2000/svg"
 width="170.000000pt" height="190.000000pt" viewBox="0 0 170.000000 190.000000"
 preserveAspectRatio="xMidYMid meet">

<g transform="translate(0.000000,190.000000) scale(0.100000,-0.100000)"
fill="#000000" stroke="none">
<path d="M793 1878 c-58 -41 -76 -115 -47 -191 5 -14 0 -17 -22 -17 -16 0 -74
-16 -129 -35 -55 -20 -104 -37 -110 -38 -45 -15 -199 -130 -250 -188 -96 -108
-161 -233 -195 -373 -34 -141 -25 -331 21 -475 26 -79 148 -288 150 -256 0 6
4 1 9 -11 12 -29 123 -124 200 -171 141 -85 260 -117 435 -116 145 1 240 20
352 72 179 84 339 247 419 428 94 212 90 492 -12 695 -45 91 -104 179 -115
172 -5 -3 -9 2 -9 12 0 23 -124 130 -205 176 -61 35 -137 68 -168 75 -32 6
-57 23 -57 40 0 95 -120 222 -210 223 -14 0 -40 -10 -57 -22z m137 -17 c110
-70 155 -218 85 -278 -86 -74 -255 58 -255 199 0 90 88 131 170 79z m-154
-228 c-4 -4 -19 -9 -34 -10 -118 -15 -288 -90 -389 -173 -114 -93 -197 -214
-250 -365 -25 -74 -27 -92 -28 -235 0 -151 1 -158 35 -255 55 -161 163 -302
302 -397 388 -263 928 -123 1137 296 59 115 82 216 82 352 1 136 -17 216 -76
339 -73 154 -203 287 -349 359 -41 20 -78 41 -82 47 -10 17 32 2 106 -38 208
-113 352 -303 406 -538 24 -106 15 -304 -20 -410 -43 -133 -97 -219 -205 -325
-81 -80 -111 -103 -191 -143 -130 -65 -224 -87 -370 -87 -85 0 -139 6 -196 20
-532 136 -774 755 -474 1215 56 85 126 157 214 220 72 51 131 79 236 111 71
22 162 32 146 17z m50 -25 l29 -33 -32 29 c-31 28 -38 36 -30 36 2 0 16 -15
33 -32z m273 -4 c46 -59 8 -176 -67 -205 -48 -19 -98 34 -90 97 2 21 13 33 42
49 22 11 48 35 59 53 23 39 30 40 56 6z m-397 -51 c19 -17 24 -43 8 -43 -5 0
-20 5 -32 11 -31 14 -80 -4 -72 -26 9 -22 31 -18 37 6 7 28 24 17 32 -22 8
-36 1 -47 -20 -29 -12 10 -16 9 -21 -5 -4 -9 -2 -21 4 -27 16 -16 62 6 69 32
7 27 33 25 33 -2 0 -37 -14 -48 -85 -73 -67 -24 -67 -24 -62 -3 7 26 -38 118
-58 118 -22 0 -18 18 8 31 18 10 121 46 136 48 3 1 13 -6 23 -16z m554 -84
c62 -40 66 -44 60 -72 -3 -17 -8 -32 -10 -35 -9 -8 -26 9 -26 25 0 17 -38 63
-51 63 -5 0 -13 -10 -20 -21 -10 -20 -9 -21 15 -17 36 7 41 -6 15 -41 -24 -32
-39 -32 -39 0 0 10 -4 19 -9 19 -12 0 -24 -37 -16 -49 12 -20 -15 -20 -49 0
-34 20 -40 39 -12 39 17 0 58 88 51 111 -10 30 19 23 91 -22z m-749 9 c-3 -13
0 -56 7 -96 l12 -73 -24 -6 c-16 -4 -43 3 -79 21 -29 14 -62 26 -73 26 -33 0
-31 17 6 49 34 30 58 34 49 8 -3 -7 13 -22 35 -35 43 -24 46 -22 34 37 -4 17
-12 31 -20 31 -28 0 -24 21 8 40 42 26 51 25 45 -2z m343 -12 c0 -8 7 -19 15
-26 12 -10 15 -10 15 0 0 7 9 2 20 -11 10 -13 19 -19 20 -12 0 6 -5 13 -12 15
-7 3 -8 10 -4 17 6 9 12 5 22 -15 8 -16 28 -37 45 -46 26 -15 35 -16 68 -5 32
11 38 11 38 0 0 -8 -6 -12 -14 -9 -32 13 14 -34 50 -50 21 -10 41 -22 44 -27
3 -6 1 -7 -5 -3 -7 4 -12 5 -12 2 0 -16 22 -13 40 6 18 19 22 21 31 8 5 -8 7
-23 5 -33 -2 -9 0 -14 6 -11 5 3 8 15 5 25 -3 11 -1 17 4 13 5 -3 9 -17 9 -32
0 -15 11 -46 24 -69 37 -64 9 -61 -61 6 -33 33 -87 72 -125 90 -37 18 -69 39
-72 47 -3 7 -19 20 -36 29 -35 18 -100 11 -100 -10 0 -10 7 -11 35 -2 43 13
79 -3 107 -48 23 -38 24 -122 2 -154 -14 -19 -22 -22 -53 -16 -56 11 -33 -1
38 -19 52 -13 66 -14 73 -4 5 9 0 16 -17 22 -14 6 -25 13 -25 17 0 35 86 -6
151 -71 29 -29 63 -78 82 -118 29 -61 32 -76 32 -162 0 -103 -4 -114 -82 -241
-19 -31 -40 -79 -47 -105 -12 -46 -14 -49 -49 -52 -34 -3 -37 -1 -61 46 -29
58 -60 71 -106 47 -22 -11 -33 -28 -43 -63 -14 -47 -14 -47 -57 -47 -41 0 -44
2 -52 34 -6 20 -17 35 -29 38 -24 7 -25 23 0 23 10 0 30 17 45 39 32 45 64 57
113 40 35 -11 98 -5 108 11 3 4 -5 21 -18 37 -15 17 -27 48 -31 78 -3 28 -13
55 -22 62 -13 10 -11 15 20 44 30 26 36 39 36 71 0 48 -43 98 -84 98 -16 0
-32 9 -42 25 -9 14 -20 25 -25 25 -5 0 -2 -11 7 -25 18 -27 5 -35 -16 -10 -7
8 -22 15 -34 14 -11 0 -15 -3 -8 -6 16 -6 15 -62 -2 -95 -13 -24 -13 -32 0
-58 9 -16 24 -36 35 -43 10 -8 16 -16 13 -20 -3 -3 13 -3 36 0 l41 6 -16 -39
c-40 -96 -71 -116 -143 -91 -27 9 -59 14 -76 10 -25 -5 -28 -9 -23 -37 3 -17
9 -40 13 -50 7 -18 4 -19 -40 -13 -58 8 -101 28 -147 67 l-34 29 31 1 c29 0
54 15 54 33 0 4 -10 1 -22 -7 -41 -29 -93 -17 -58 13 22 18 45 114 26 108 -6
-2 -13 -21 -16 -43 -11 -74 -34 -85 -50 -23 -6 23 -10 42 -8 43 2 1 26 15 53
31 28 16 82 59 121 97 76 73 114 88 114 44 0 -13 3 -31 6 -39 4 -11 -2 -17
-18 -20 -20 -4 -20 -4 5 -6 16 0 37 -6 48 -11 19 -11 28 3 9 15 -5 3 -7 12 -4
20 6 16 -12 55 -35 72 -14 11 -14 12 2 13 10 0 17 8 17 20 0 24 -25 27 -34 4
-3 -9 -13 -14 -20 -11 -9 4 -26 -9 -43 -31 -46 -61 -125 -131 -181 -160 -50
-25 -53 -29 -49 -58 5 -28 2 -33 -21 -37 -32 -6 -49 0 -56 20 -10 24 10 40 87
69 60 23 84 39 144 100 75 75 105 124 129 206 19 62 48 67 63 11 15 -53 14
-55 -16 -49 -24 5 -31 1 -46 -25 -21 -39 -16 -50 7 -14 18 27 56 33 78 12 22
-21 62 -34 88 -27 22 5 18 8 -33 30 -41 18 -57 30 -57 45 0 11 -3 30 -6 42 -4
16 -1 25 11 29 19 8 40 -16 24 -27 -5 -3 -7 -13 -3 -22 4 -13 10 -14 24 -7 10
6 29 10 42 11 22 0 22 1 2 9 -22 8 -44 51 -47 88 -1 14 -8 22 -19 22 -13 0
-18 -8 -18 -31 l0 -31 -50 7 c-46 6 -50 5 -50 -14 0 -11 -10 -32 -23 -47 -21
-24 -25 -25 -45 -13 -12 8 -22 21 -22 29 0 13 1 13 10 0 9 -13 14 -8 11 12 0
4 9 10 22 14 12 3 30 14 40 23 11 8 24 16 30 16 24 2 67 17 67 25 0 4 -12 5
-26 2 -45 -8 -19 14 30 27 35 9 46 17 54 40 6 16 8 32 5 35 -21 21 -156 -7
-235 -48 -47 -25 -54 -23 -42 8 8 20 84 56 123 59 16 1 27 6 24 11 -4 5 7 6
23 3 16 -3 24 -4 18 -1 -12 5 -3 79 11 92 4 4 5 -4 2 -16 -5 -21 -3 -23 15
-18 13 3 26 -1 33 -10 8 -12 10 -6 7 27 -3 29 -1 40 7 35 6 -4 11 -13 11 -20z
m-270 -138 c0 -14 -25 -4 -31 12 -10 24 2 33 17 13 7 -10 14 -21 14 -25z m848
-13 c61 -66 30 -155 -55 -155 -48 0 -75 19 -97 65 -14 29 -15 42 -6 70 25 75
99 84 158 20z m-1069 -26 c60 -20 61 -22 45 -40 -9 -10 -23 -19 -31 -19 -7 0
-23 -16 -34 -35 -12 -19 -22 -35 -24 -35 -2 0 -19 25 -39 55 -32 47 -35 57
-24 75 16 25 29 25 107 -1z m191 -64 l16 -65 -53 -36 c-55 -38 -88 -76 -118
-134 -23 -45 -22 -45 -37 -33 -7 6 -30 16 -50 22 -24 8 -38 19 -38 29 0 35 61
144 105 186 37 37 133 96 154 96 4 0 13 -29 21 -65z m979 -74 c32 -61 45 -125
32 -150 -14 -25 -53 -28 -71 -6 -18 22 -25 19 -46 -20 -22 -41 -31 -44 -40
-11 -4 17 3 37 22 65 15 23 25 44 22 46 -9 10 -38 -7 -38 -21 0 -27 -26 -14
-43 21 -16 33 -9 54 13 40 14 -9 110 43 110 60 0 27 19 16 39 -24z m-1292 -8
c3 -6 -9 -19 -26 -27 -28 -15 -49 -51 -37 -63 3 -3 25 15 49 40 24 26 48 47
54 47 31 0 21 -29 -35 -97 -35 -44 -67 -54 -90 -31 -17 17 -15 70 3 94 8 10
15 27 15 37 0 14 7 18 32 15 17 -2 33 -8 35 -15z m1098 -11 c-3 -3 -11 0 -18
7 -9 10 -8 11 6 5 10 -3 15 -9 12 -12z m-38 -7 c9 -25 -4 -29 -17 -6 -7 15 -7
21 0 21 6 0 13 -7 17 -15z m-640 -60 c-10 -11 -15 -11 -28 1 -8 8 -20 14 -26
14 -6 0 -13 11 -15 23 l-5 24 43 -24 c35 -20 41 -27 31 -38z m689 0 c-3 -8 -2
-15 3 -15 5 0 11 -9 14 -21 4 -13 10 -18 18 -13 8 5 10 3 5 -5 -5 -7 -5 -33
-1 -57 6 -45 7 -45 41 -41 19 3 34 1 34 -4 0 -5 -10 -9 -22 -10 -13 0 -18 -3
-12 -5 7 -3 10 -14 7 -24 -4 -14 0 -20 11 -20 9 0 16 -4 16 -10 0 -5 -7 -7
-15 -4 -8 4 -15 1 -15 -5 0 -15 40 -14 45 2 2 6 10 26 16 42 l12 30 12 -40
c11 -36 15 -40 51 -45 l39 -5 -28 -19 c-25 -17 -28 -23 -22 -58 7 -38 6 -39
-13 -29 -12 6 -24 16 -27 21 -4 6 -18 1 -35 -12 -37 -27 -44 -20 -31 29 9 34
9 36 -4 19 -15 -19 -15 -19 -15 2 0 12 -3 22 -7 22 -5 0 -6 -22 -5 -50 3 -32
0 -50 -7 -50 -6 0 -11 -4 -11 -10 0 -5 7 -10 16 -10 23 0 6 -20 -19 -21 -20
-1 -19 -2 6 -12 18 -7 27 -18 27 -34 0 -24 -34 -50 -45 -33 -8 13 -25 13 -25
-1 0 -5 4 -8 9 -5 5 3 11 0 14 -8 4 -11 -2 -12 -28 -6 -28 6 -37 4 -54 -14
-21 -23 -27 -47 -14 -60 15 -14 11 -35 -5 -28 -15 5 -15 4 -2 -14 14 -18 14
-18 -5 -3 -36 29 -44 30 -63 9 l-19 -21 5 28 c3 15 24 53 47 83 105 136 138
287 96 440 -10 36 -21 72 -25 82 -5 11 -2 18 11 21 10 3 20 5 22 6 2 0 1 -6
-3 -14z m-778 -24 c-2 -21 4 -35 22 -50 l25 -20 -28 -1 c-22 0 -31 -7 -42 -32
l-13 -33 -13 28 c-11 24 -18 28 -41 25 -33 -5 -35 2 -9 26 16 15 18 23 10 43
-11 30 -4 42 13 25 16 -16 43 -15 58 3 18 22 22 19 18 -14z m-308 -41 c0 -11
-7 -20 -15 -20 -27 0 -18 30 13 39 1 1 2 -8 2 -19z m85 -120 c0 -41 -5 -84
-10 -95 -6 -11 -10 -26 -9 -32 1 -7 2 -17 3 -23 0 -5 7 -10 15 -10 7 0 21 -21
31 -47 40 -108 145 -227 246 -278 115 -59 268 -69 394 -27 73 24 125 20 117
-10 -3 -13 -7 -16 -12 -8 -9 14 -120 -18 -120 -35 0 -18 -227 -11 -297 10 -37
10 -60 22 -56 28 3 6 1 7 -5 3 -6 -4 -25 0 -43 9 -29 15 -32 15 -51 -2 -21
-18 -21 -18 -8 6 11 21 10 26 -4 36 -8 7 -14 15 -11 18 3 4 2 5 -1 2 -4 -2
-20 5 -36 16 -28 21 -30 21 -51 3 -19 -16 -20 -16 -8 -1 8 9 9 17 3 17 -5 0
-8 9 -5 20 3 11 0 27 -7 35 -6 8 -9 18 -6 23 5 9 -46 7 -72 -3 -9 -3 -10 3 -6
23 4 15 3 24 -1 20 -10 -10 -27 23 -44 84 -8 26 -17 45 -22 42 -5 -3 -22 4
-37 15 -27 19 -28 19 -52 1 -32 -24 -41 -17 -27 19 10 26 8 31 -19 55 l-29 25
37 1 c33 0 38 4 48 35 12 37 30 47 30 17 0 -24 24 -57 37 -49 6 4 7 24 3 50
-10 66 0 84 47 83 l38 -1 0 -75z m630 54 c52 -56 14 -126 -68 -128 -57 -1 -77
16 -77 66 0 81 92 120 145 62z m-536 -19 c2 -11 12 -26 22 -33 23 -16 25 -37
4 -28 -8 3 -15 1 -15 -4 0 -25 -22 -5 -45 39 l-25 50 28 -2 c18 -2 28 -9 31
-22z m161 -365 c0 -5 -2 -10 -4 -10 -3 0 -8 5 -11 10 -3 6 -1 10 4 10 6 0 11
-4 11 -10z m114 -26 c4 -15 5 -29 2 -32 -6 -5 -86 44 -86 53 0 3 18 5 39 5 34
0 40 -4 45 -26z m754 -8 c48 2 50 -5 21 -52 -21 -34 -57 -49 -45 -19 7 20 -13
19 -36 -2 -24 -21 -23 -43 2 -43 26 0 25 -13 -3 -46 -23 -26 -51 -27 -42 -1 3
7 -11 43 -30 81 -43 86 -37 100 39 89 28 -5 70 -7 94 -7z m-1069 -10 c9 -11 5
-28 -20 -77 -18 -34 -32 -71 -33 -82 -2 -32 -21 -30 -50 4 -29 34 -30 56 -2
51 20 -4 21 12 0 43 -15 23 -46 25 -41 3 5 -24 -20 -16 -36 11 -25 42 -22 50
16 45 17 -3 52 -1 77 4 65 14 76 14 89 -2z m589 -26 c-14 -4 -32 -11 -40 -16
-10 -6 -10 -4 1 9 7 9 25 17 40 16 l26 -1 -27 -8z m-235 -22 c16 -6 27 -17 27
-29 0 -14 -7 -19 -27 -19 -37 0 -49 10 -55 43 -5 23 -3 27 11 22 9 -4 28 -12
44 -17z m-254 -52 c23 -24 23 -26 8 -70 -9 -25 -13 -46 -9 -46 3 0 21 14 39
32 l33 32 35 -17 c35 -17 47 -37 22 -37 -8 0 -24 -22 -37 -50 -18 -39 -21 -52
-11 -64 21 -25 -6 -28 -55 -7 -42 19 -52 41 -19 41 8 0 24 19 36 41 l21 42
-50 -42 c-65 -55 -85 -49 -67 19 7 26 16 54 20 62 4 7 -7 -1 -23 -19 -21 -22
-29 -38 -25 -52 7 -28 -3 -26 -41 5 -32 28 -36 39 -11 39 23 0 85 67 85 92 0
30 21 29 49 -1z m770 5 c30 -23 21 -39 -19 -33 -56 8 -81 -47 -40 -88 37 -37
100 -14 100 35 0 13 7 25 15 29 30 11 17 -52 -18 -90 -28 -30 -40 -37 -76 -38
-34 0 -47 4 -62 23 -44 54 -32 112 29 155 45 30 42 30 71 7z m51 9 c0 -5 -2
-10 -4 -10 -3 0 -8 5 -11 10 -3 6 -1 10 4 10 6 0 11 -4 11 -10z m-76 -67 c-5
-5 -12 -12 -16 -18 -4 -6 -8 -2 -8 8 0 9 7 17 17 17 9 0 12 -3 7 -7z m-139
-42 c-8 -25 31 -111 50 -111 33 0 12 -29 -32 -44 -26 -9 -48 -16 -50 -16 -8 0
-2 29 7 32 13 4 -21 108 -34 107 -5 0 -13 5 -17 13 -6 9 2 18 29 29 42 18 55
15 47 -10z m-360 -17 c42 -7 65 -26 65 -56 0 -24 -22 -23 -37 1 -6 10 -23 21
-37 23 -22 4 -26 2 -26 -18 0 -13 5 -24 10 -24 6 0 10 5 10 10 0 6 7 10 15 10
16 0 18 -12 9 -47 -7 -26 -34 -31 -34 -7 0 23 -24 11 -28 -14 -3 -19 1 -22 34
-22 21 0 45 7 55 16 27 25 42 8 24 -27 -18 -34 -47 -37 -139 -11 -58 17 -87
42 -48 42 14 0 22 13 34 55 9 31 11 58 7 61 -17 10 3 26 25 20 11 -3 39 -9 61
-12z m253 -16 c17 -17 15 -53 -4 -69 -15 -12 -14 -15 6 -31 12 -10 31 -18 41
-18 10 0 19 -7 19 -15 0 -8 -6 -15 -12 -15 -7 0 -23 -3 -34 -6 -15 -4 -32 4
-58 26 -43 38 -62 37 -41 -4 9 -16 14 -31 12 -32 -2 -2 -25 -7 -50 -10 -39 -6
-47 -4 -47 10 0 9 5 16 10 16 6 0 10 26 10 59 0 33 -4 63 -10 66 -21 13 -8 24
33 28 88 8 113 7 125 -5z"/>
<path d="M1020 1366 c0 -3 9 -10 20 -16 11 -6 20 -8 20 -6 0 3 -9 10 -20 16
-11 6 -20 8 -20 6z"/>
<path d="M884 756 c-11 -28 -52 -39 -85 -22 -16 8 -29 11 -29 6 0 -15 53 -42
83 -44 27 -1 32 3 38 34 8 38 4 54 -7 26z"/>
<path d="M1333 1295 c-27 -19 -34 -49 -16 -74 18 -27 43 -27 77 0 61 48 4 119
-61 74z m9 -50 c3 -13 1 -22 -3 -19 -9 5 -13 44 -5 44 2 0 6 -11 8 -25z m38
-5 c0 -5 -5 -10 -11 -10 -5 0 -7 5 -4 10 3 6 8 10 11 10 2 0 4 -4 4 -10z"/>
<path d="M306 1235 c4 -8 10 -12 15 -9 14 8 10 24 -6 24 -9 0 -12 -6 -9 -15z"/>
<path d="M1490 1100 c-11 -7 -12 -15 -4 -37 13 -38 40 -37 37 1 -3 36 -14 48
-33 36z"/>
<path d="M281 774 c0 -11 3 -14 6 -6 3 7 2 16 -1 19 -3 4 -6 -2 -5 -13z"/>
<path d="M250 775 c0 -14 24 -54 31 -50 8 6 -12 55 -23 55 -5 0 -8 -2 -8 -5z"/>
<path d="M321 644 c0 -11 3 -14 6 -6 3 7 2 16 -1 19 -3 4 -6 -2 -5 -13z"/>
<path d="M946 893 c-12 -13 -6 -53 9 -53 9 0 15 9 15 24 0 26 -12 40 -24 29z"/>
<path d="M887 883 c-15 -15 -7 -43 13 -43 21 0 24 8 14 34 -7 17 -16 20 -27 9z"/>
<path d="M1356 465 c7 -17 20 -20 28 -6 3 5 -1 12 -10 15 -22 9 -24 8 -18 -9z"/>
<path d="M315 471 c-10 -17 12 -21 25 -6 10 12 10 15 -3 15 -9 0 -18 -4 -22
-9z"/>
<path d="M913 253 c-19 -7 -16 -43 3 -43 8 0 24 5 35 11 16 8 18 13 8 25 -12
14 -24 16 -46 7z"/>
</g>
</svg>
